<svg xmlns="http://www.w3.org/2000/svg" viewBox="0.407 -0.0003 99.1861 100.0003" width="99.1861px" height="100.0003px">
	<path
		d="M38.142,26.651H61.858a1.369,1.369,0,0,0,1.226-1.975L51.225,0.76a1.367,1.367,0,0,0-2.45,0L36.916,24.676a1.369,1.369,0,0,0,1.226,1.975Z"
		fill="#000000"></path>
	<path d="M50,4.446l9.654,19.47H40.346Z" fill="#0d47a1"></path>
	<path
		d="M25.017,51.11H73.988a1.368,1.368,0,0,0,1.225-1.975L65.7,29.947a1.367,1.367,0,0,0-1.225-.76H35.528a1.367,1.367,0,0,0-1.225.76L24.792,49.135a1.367,1.367,0,0,0,1.225,1.975Z"
		fill="#000000"></path>
	<path d="M35.377,31.922H63.623l8.161,16.453H28.221Z" fill="#1976d2"></path>
	<path
		d="M14.888,75.575h72.23a1.368,1.368,0,0,0,1.225-1.975L77.826,54.405a1.367,1.367,0,0,0-1.225-.76H23.4a1.369,1.369,0,0,0-1.226.761L12.662,73.594a1.369,1.369,0,0,0,1.226,1.975Z"
		fill="#000000"></path>
	<path d="M24.247,56.38H75.753l8.16,16.454H16.092Z" fill="#64b5f6"></path>
	<path
		d="M99.451,98.025,89.956,78.87a1.365,1.365,0,0,0-1.225-.76H11.269a1.365,1.365,0,0,0-1.225.76L.549,98.025A1.368,1.368,0,0,0,1.774,100H98.226a1.368,1.368,0,0,0,1.225-1.975Z"
		fill="#000000"></path>
	<path d="M4.978,97.265l8.139-16.42H87.883l8.139,16.42Z" fill="#e3f2fd"></path>
</svg>
